<svg xmlns="http://www.w3.org/2000/svg" width="50" height="50" viewBox="0 0 50 50">
  <g id="Group_3537" data-name="Group 3537" transform="translate(-207 -775)">
    <g id="Ellipse_9" data-name="Ellipse 9" transform="translate(207 775)" fill="#f4f4f5" stroke="#d4d4d8" stroke-width="1">
      <circle cx="25" cy="25" r="25" stroke="none"/>
      <circle cx="25" cy="25" r="24.5" fill="none"/>
    </g>
    <g id="phone_outline" transform="translate(198 766)">
      <path id="Path_539" data-name="Path 539" d="M44,41.985V38.974a2,2,0,0,0-.476-1.347c-.9-1.059-3.984-1.737-5.206-1.477-.953.2-1.62,1.16-2.272,1.81a16.074,16.074,0,0,1-6.034-6.022c.652-.651,1.611-1.316,1.814-2.267.26-1.218-.416-4.283-1.468-5.186A2.014,2.014,0,0,0,29.026,24H26.01a2.039,2.039,0,0,0-2,2.188,17.586,17.586,0,0,0,17.8,17.8A2.039,2.039,0,0,0,44,41.985Z" transform="translate(0)" fill="none" stroke="#000" stroke-linecap="round" stroke-linejoin="round" stroke-width="1.5"/>
    </g>
  </g>
</svg>
