<svg xmlns="http://www.w3.org/2000/svg" width="50" height="50" viewBox="0 0 50 50">
  <g id="Group_3536" data-name="Group 3536" transform="translate(-207 -699)">
    <g id="Ellipse_8" data-name="Ellipse 8" transform="translate(207 699)" fill="#f4f4f5" stroke="#d4d4d8" stroke-width="1">
      <circle cx="25" cy="25" r="25" stroke="none"/>
      <circle cx="25" cy="25" r="24.5" fill="none"/>
    </g>
    <g id="mail_outline" transform="translate(198 676)">
      <path id="Path_538" data-name="Path 538" d="M24.325,40.325A1.108,1.108,0,0,1,25.111,40H42.889a1.108,1.108,0,0,1,.786.325m-19.349,0a1.108,1.108,0,0,0-.325.786V54.444a1.111,1.111,0,0,0,1.111,1.111H42.889A1.111,1.111,0,0,0,44,54.444V41.111a1.108,1.108,0,0,0-.325-.786m-19.349,0,8.1,8.1a2.222,2.222,0,0,0,3.143,0l8.1-8.1" fill="none" stroke="#000" stroke-linecap="round" stroke-linejoin="round" stroke-width="1.5"/>
    </g>
  </g>
</svg>
