<svg xmlns="http://www.w3.org/2000/svg" xmlns:xlink="http://www.w3.org/1999/xlink" width="769" height="180" viewBox="0 0 769 180">
  <defs>
    <linearGradient id="linear-gradient" x1="0.007" y1="0.04" x2="0.987" y2="0.977" gradientUnits="objectBoundingBox">
      <stop offset="0" stop-color="#01b0e9"/>
      <stop offset="1" stop-color="#0671c4"/>
    </linearGradient>
    <clipPath id="clip-path">
      <rect id="Rectangle_333" data-name="Rectangle 333" width="769" height="180" rx="20" transform="translate(176 357)" fill="url(#linear-gradient)"/>
    </clipPath>
  </defs>
  <g id="Group_3813" data-name="Group 3813" transform="translate(-176 -357)">
    <rect id="Rectangle_260" data-name="Rectangle 260" width="769" height="180" rx="20" transform="translate(176 357)" fill="url(#linear-gradient)"/>
    <g id="Mask_Group_6" data-name="Mask Group 6" clip-path="url(#clip-path)">
      <path id="Union_6" data-name="Union 6" d="M2243.454,475.063a34.87,34.87,0,0,1,0-49.61,35.27,35.27,0,0,1,13.163-8.256l-2.663-50.814a141.788,141.788,0,0,1-81.416-39.971A139.73,139.73,0,0,1,2133.5,253.45l-31.473,6.881a28.159,28.159,0,0,1-8.306,18,28.794,28.794,0,0,1-40.476,0,28.209,28.209,0,0,1,0-40.134,28.793,28.793,0,0,1,40.476,0,28.449,28.449,0,0,1,4.792,6.291l32.838-7.18a139.736,139.736,0,0,1,26.914-93.461L2143,98.9a34.753,34.753,0,0,1-25.74-10.053,34.189,34.189,0,0,1,0-48.643,34.9,34.9,0,0,1,49.056,0,34.191,34.191,0,0,1,0,48.643,34.927,34.927,0,0,1-4.531,3.789l11.524,33.945c55.5-54.211,144.784-53.953,199.965.766a139.936,139.936,0,0,1,23.585,168.189l49.6,15.762a26.941,26.941,0,0,1,3.2-3.823,27.226,27.226,0,0,1,38.271,0,26.675,26.675,0,0,1,.036,37.908l-.036.038a27.227,27.227,0,0,1-38.271,0,26.642,26.642,0,0,1-7.919-19.521l-53.463-16.99a142.262,142.262,0,0,1-114.024,58.714h0l2.545,48.525,0,.011a35.3,35.3,0,0,1,16.677,9.292,34.871,34.871,0,0,1,.05,49.56l-.05.05a35.591,35.591,0,0,1-50.033,0Zm29.455-125.787c.131,0,.262,0,.386-.008a123.08,123.08,0,0,0,86.894-35.839,121.689,121.689,0,0,0,0-173.1,124.161,124.161,0,0,0-174.559,0,121.665,121.665,0,0,0,0,173.1,122.8,122.8,0,0,0,67.351,34.259q3.581.579,7.217.948A126.455,126.455,0,0,0,2272.909,349.277Z" transform="matrix(0.966, 0.259, -0.259, 0.966, -1280.795, -369.567)" fill="#fff" opacity="0.2"/>
      <path id="Union_7" data-name="Union 7" d="M110.952,5.741a19.481,19.481,0,0,0,0,27.717,19.7,19.7,0,0,0,7.354,4.613L116.819,66.46A79.216,79.216,0,0,0,71.332,88.791a78.062,78.062,0,0,0-21.81,40.763l-17.585-3.844A15.731,15.731,0,0,0,27.3,115.651a16.087,16.087,0,0,0-22.614,0,15.76,15.76,0,0,0,0,22.423,16.086,16.086,0,0,0,22.614,0,15.888,15.888,0,0,0,2.677-3.514l18.347,4.012a78.069,78.069,0,0,0,15.037,52.216L54.832,215.9a19.416,19.416,0,0,0-14.381,5.616,19.1,19.1,0,0,0,0,27.176,19.5,19.5,0,0,0,27.407,0,19.1,19.1,0,0,0,0-27.176,19.5,19.5,0,0,0-2.531-2.117l6.438-18.965a79.774,79.774,0,0,0,111.719-.428,78.18,78.18,0,0,0,13.177-93.966l27.71-8.806a15.044,15.044,0,0,0,1.791,2.136,15.211,15.211,0,0,0,21.381,0,14.9,14.9,0,0,0,.02-21.179l-.02-.021a15.211,15.211,0,0,0-21.381,0,14.883,14.883,0,0,0-4.424,10.906l-29.87,9.492a79.48,79.48,0,0,0-63.7-32.8h0l1.422-27.111v-.006a19.723,19.723,0,0,0,9.318-5.192,19.481,19.481,0,0,0,.028-27.689l-.028-.028a19.884,19.884,0,0,0-27.953,0Zm16.456,70.276c.073,0,.146,0,.216,0a68.763,68.763,0,0,1,48.547,20.023,67.987,67.987,0,0,1,0,96.709,69.368,69.368,0,0,1-97.525,0,67.974,67.974,0,0,1,0-96.709A68.608,68.608,0,0,1,116.275,76.9q2-.323,4.032-.53A70.651,70.651,0,0,1,127.409,76.017Z" transform="matrix(-0.629, 0.777, -0.777, -0.629, 457.816, 388.115)" fill="#fff" opacity="0.2"/>
    </g>
  </g>
</svg>
