<svg xmlns="http://www.w3.org/2000/svg" width="945.763" height="962.641" viewBox="0 0 945.763 962.641">
  <path id="Union_5" data-name="Union 5" d="M2461.314,971.042a74.225,74.225,0,0,1,27.6-122.384l-5.582-107.447h0a297.77,297.77,0,0,1-252.6-238.826l-66,14.553a59.848,59.848,0,1,1-7.37-33.5l68.86-15.184a297.3,297.3,0,0,1,56.438-197.643l-32-95.041a72.744,72.744,0,1,1,48.893-21.262,73.331,73.331,0,0,1-9.495,8.011l24.164,71.776c116.379-114.618,303.621-114.084,419.328,1.622,96.351,96.352,112.85,242.326,49.462,355.669l104,33.332a56.768,56.768,0,1,1-9.886,30.882l-112.112-35.929a299.818,299.818,0,0,1-31.467,37.009,296.628,296.628,0,0,1-207.645,87.151l5.339,102.617v.016a74.2,74.2,0,1,1-69.947,124.574Zm61.771-266.009c.243,0,.487,0,.72-.011l.088,0a257.935,257.935,0,1,0-42.6-3.341A259.749,259.749,0,0,0,2523.084,705.033Z" transform="translate(-2044.861 -30.131)" opacity="0.05"/>
</svg>
