<svg xmlns="http://www.w3.org/2000/svg" width="30" height="30" viewBox="0 0 30 30">
  <path id="briefcase_8_" data-name="briefcase (8)" d="M23.75,5H22.375A6.261,6.261,0,0,0,16.25,0h-2.5A6.261,6.261,0,0,0,7.625,5H6.25A6.257,6.257,0,0,0,0,11.25v12.5A6.258,6.258,0,0,0,6.25,30h17.5A6.258,6.258,0,0,0,30,23.75V11.25A6.258,6.258,0,0,0,23.75,5Zm-10-2.5h2.5A3.75,3.75,0,0,1,19.77,5H10.23A3.75,3.75,0,0,1,13.75,2.5Zm-7.5,5h17.5a3.75,3.75,0,0,1,3.75,3.75V15H2.5V11.25A3.75,3.75,0,0,1,6.25,7.5Zm17.5,20H6.25A3.75,3.75,0,0,1,2.5,23.75V17.5H13.75v1.25a1.25,1.25,0,0,0,2.5,0V17.5H27.5v6.25A3.75,3.75,0,0,1,23.75,27.5Z" fill="#febe2a"/>
</svg>
