<svg xmlns="http://www.w3.org/2000/svg" width="50" height="50" viewBox="0 0 50 50">
  <g id="Group_3538" data-name="Group 3538" transform="translate(-207 -851)">
    <circle id="Ellipse_10" data-name="Ellipse 10" cx="25" cy="25" r="25" transform="translate(207 851)" fill="#01b0e9"/>
    <path id="usa-map-pin" d="M5.417,4.166a1.25,1.25,0,1,1,1.25,1.25A1.25,1.25,0,0,1,5.417,4.166ZM20,5.1a13.5,13.5,0,0,0-.833-1.766c-.01,0-.823,0-.833,0-.034.281.019,1.385,0,1.666a.806.806,0,0,1-.833.833,26.664,26.664,0,0,1-1.562,2.2,1.126,1.126,0,0,1-.687.3c-.143,0-.25-.062-.25-.223V5.832s-1.406-.392-2.59-.67a5.735,5.735,0,0,1-.519,1.591c.466.107.985.237,1.442.357v1A1.883,1.883,0,0,0,15.249,10a2.754,2.754,0,0,0,1.416-.434v.042c0,.3,0,1.839,0,1.839l0,0c-.082.118-.5.768-.669,1.008a10.044,10.044,0,0,0-.724,1.124,2.574,2.574,0,0,0-.231.64,6.321,6.321,0,0,0-.872-.056A2.411,2.411,0,0,0,12.275,15H11.127l-.437.317a3.669,3.669,0,0,0-1.107,1.506,2.776,2.776,0,0,0-1.857-.935L7.7,15.844c-.779-1.374-2.949-2.314-4.594-2.5a2.905,2.905,0,0,0-.681,0,7.542,7.542,0,0,1-.757-2.915V9.386a10.133,10.133,0,0,1,.25-1.846A5.778,5.778,0,0,1,.9,5H.836A20.766,20.766,0,0,0,0,9.386v1.047a10.042,10.042,0,0,0,1.666,4.984,2.093,2.093,0,0,1,1.117-.424c1.314.149,3.043.927,3.466,1.674.212.373.417.833.417.833.393,0,1.463.042,1.666.448A10.8,10.8,0,0,0,10,20s1.167-2.971,1.666-3.333h1.666a.816.816,0,0,1,.833-.833c.514,0,1.666,0,1.666.833a3.124,3.124,0,0,0,.833,1.666l1.025,0a2.016,2.016,0,0,0-.23-1.539,14.643,14.643,0,0,1-.762-1.575,2.267,2.267,0,0,1,.047-.864c.292-.557.814-1.168,1.129-1.716.175-.3.458-.558.458-.975,0-.833.007-1.6,0-2.083A34.528,34.528,0,0,1,20,5.835V5.1ZM3.727,7.118A4.143,4.143,0,0,1,2.5,4.166a4.166,4.166,0,1,1,8.332,0,4.138,4.138,0,0,1-1.22,2.945L6.666,9.993Zm.44-2.952A2.482,2.482,0,0,0,4.9,5.933L6.666,7.662,8.44,5.927a2.477,2.477,0,0,0,.726-1.761,2.5,2.5,0,1,0-5,0Z" transform="translate(221.999 866.001)" fill="#fff"/>
  </g>
</svg>
