<svg xmlns="http://www.w3.org/2000/svg" width="30" height="22.5" viewBox="0 0 30 22.5">
  <g id="credit-card_2_" data-name="credit-card (2)" transform="translate(0 -3)">
    <circle id="Ellipse_1" data-name="Ellipse 1" cx="1.5" cy="1.5" r="1.5" transform="translate(5.143 17.3)" fill="#13cc95"/>
    <path id="Path_1" data-name="Path 1" d="M23.75,3H6.25A6.257,6.257,0,0,0,0,9.25v10A6.257,6.257,0,0,0,6.25,25.5h17.5A6.258,6.258,0,0,0,30,19.25v-10A6.258,6.258,0,0,0,23.75,3ZM6.25,5.5h17.5A3.75,3.75,0,0,1,27.5,9.25H2.5A3.75,3.75,0,0,1,6.25,5.5ZM23.75,23H6.25A3.75,3.75,0,0,1,2.5,19.25v-7.5h25v7.5A3.75,3.75,0,0,1,23.75,23Z" fill="#13cc95"/>
  </g>
</svg>
