<svg xmlns="http://www.w3.org/2000/svg" width="195.55" height="66.69" viewBox="0 0 195.55 66.69">
  <g id="Diagram" transform="translate(0.79 -11.2)">
    <path id="Path_4" data-name="Path 4" d="M0,34.459S9.814,22.824,17.6,22.824L34.839,44.286,52.307,18.948,63.176,31.617,85.24,0,97.906,17.829l16.865,5L129.18,44.286l13.61.413L149.9,28.1l12.359,16.6,6.36-10.24L181.308,28.1,194,14.431V55.9c0,4.947-3.247,8.957-7.252,8.957H7.252C3.247,64.852,0,60.842,0,55.9Z" transform="translate(0 13.038)" fill="#fff" opacity="0.2"/>
    <path id="Path_4-2" data-name="Path 4" d="M0,37.416S9.814,24.782,17.6,24.782l17.241,23.3L52.307,20.574,63.176,34.33,85.24,0,97.906,19.358l16.865,5.424,14.409,23.3,13.61.449L149.9,30.51l12.359,18.025,6.36-11.118,12.692-6.907L194,15.67" transform="translate(0 13.038)" fill="none" stroke="#fff" stroke-width="2"/>
  </g>
</svg>
