<svg xmlns="http://www.w3.org/2000/svg" width="30.002" height="30" viewBox="0 0 30.002 30">
  <path id="revenue-alt" d="M20,23.751a3.755,3.755,0,0,1-3.75,3.75v1.25a1.25,1.25,0,1,1-2.5,0V27.5h-.335a3.763,3.763,0,0,1-3.248-1.874,1.249,1.249,0,1,1,2.163-1.251A1.258,1.258,0,0,0,13.414,25h2.835a1.251,1.251,0,0,0,1.25-1.25.96.96,0,0,0-.805-.95l-3.8-.634A3.451,3.451,0,0,1,10,18.751,3.755,3.755,0,0,1,13.749,15V13.75a1.25,1.25,0,1,1,2.5,0V15h.335a3.763,3.763,0,0,1,3.248,1.874,1.249,1.249,0,1,1-2.163,1.251,1.258,1.258,0,0,0-1.084-.625H13.751a1.251,1.251,0,0,0-1.25,1.25.96.96,0,0,0,.805.95l3.8.634A3.451,3.451,0,0,1,20,23.751ZM29.635,13.6l-2.866-2.866a2.5,2.5,0,0,0-3.535,0L20.367,13.6a1.25,1.25,0,1,0,1.768,1.768l1.616-1.616v15a1.25,1.25,0,1,0,2.5,0v-15l1.616,1.616A1.25,1.25,0,1,0,29.635,13.6Zm-17.5-8.233L13.751,3.75v5a1.25,1.25,0,1,0,2.5,0v-5l1.616,1.616A1.25,1.25,0,1,0,19.635,3.6L16.768.732a2.5,2.5,0,0,0-3.535,0L10.367,3.6a1.25,1.25,0,0,0,1.768,1.768Zm-2.5,4.483L6.768,6.983a2.5,2.5,0,0,0-3.535,0L.366,9.849a1.25,1.25,0,1,0,1.768,1.768L3.75,10V28.751a1.25,1.25,0,1,0,2.5,0V10l1.616,1.616A1.25,1.25,0,1,0,9.634,9.849Z" transform="translate(0 -0.001)" fill="#01b0e9"/>
</svg>
