<svg xmlns="http://www.w3.org/2000/svg" width="30" height="30" viewBox="0 0 30 30">
  <path id="users-alt" d="M15,20a5,5,0,1,1,5-5A5,5,0,0,1,15,20Zm0-7.5A2.5,2.5,0,1,0,17.5,15,2.5,2.5,0,0,0,15,12.5Zm7.5,16.25a7.5,7.5,0,0,0-15,0,1.25,1.25,0,0,0,2.5,0,5,5,0,0,1,10,0,1.25,1.25,0,0,0,2.5,0ZM22.5,10a5,5,0,1,1,5-5A5,5,0,0,1,22.5,10Zm0-7.5A2.5,2.5,0,1,0,25,5,2.5,2.5,0,0,0,22.5,2.5ZM30,18.75a7.508,7.508,0,0,0-7.5-7.5,1.25,1.25,0,0,0,0,2.5,5,5,0,0,1,5,5,1.25,1.25,0,0,0,2.5,0ZM7.5,10a5,5,0,1,1,5-5A5,5,0,0,1,7.5,10Zm0-7.5A2.5,2.5,0,1,0,10,5,2.5,2.5,0,0,0,7.5,2.5Zm-5,16.25a5,5,0,0,1,5-5,1.25,1.25,0,0,0,0-2.5A7.507,7.507,0,0,0,0,18.75a1.25,1.25,0,0,0,2.5,0Z"/>
</svg>
